<svg xmlns="http://www.w3.org/2000/svg" viewBox="0 0 612.22 205"><defs><style>.cls-1{fill:#1e1e1e;stroke:#f7931e;stroke-miterlimit:10;stroke-width:8px;}.cls-2,.cls-4{fill:#f7931e;}.cls-3{fill:#dc781e;}.cls-4{font-size:92.08px;font-family:BerlinSansFBDemi-Bold, Berlin Sans FB Demi;font-weight:700;}</style></defs><title>Ресурс 5</title><g id="Слой_2" data-name="Слой 2"><g id="Слой_1-2" data-name="Слой 1"><path class="cls-1" d="M154.25,4H50.75A46.75,46.75,0,0,0,4,50.75v103.5A46.75,46.75,0,0,0,50.75,201h103.5A46.75,46.75,0,0,0,201,154.25V50.75A46.75,46.75,0,0,0,154.25,4Z"/><path class="cls-2" d="M165.7,129.67h2s.22,0-7.19-41.16c-8.24-45.75-26.27-54.86-44.06-56.68a12.82,12.82,0,0,0,.11-1.65v-4A13.18,13.18,0,0,0,103.37,13h-.8A13.19,13.19,0,0,0,89.38,26.18v4a12.08,12.08,0,0,0,.13,1.71c-17.7,2-35,11.36-43.28,56.62-7.56,41.22-8,41.16-8,41.16h2a13.18,13.18,0,0,0-13.18,13.18h0A13.19,13.19,0,0,0,40.24,156H165.7a13.19,13.19,0,0,0,13.18-13.19h0A13.18,13.18,0,0,0,165.7,129.67Z"/><path class="cls-3" d="M103,129.67H49.46s-.18,0,6-34.67C64,46.86,85.34,46.86,103,46.86Z"/><path class="cls-2" d="M125.34,165.63a22.38,22.38,0,0,1-44.75,0Z"/><path class="cls-3" d="M103,183.21c-8.82,0-16-6.44-16-14.39h16Z"/><text class="cls-4" transform="translate(214 130.16)">Reminder</text></g></g></svg>