<svg xmlns="http://www.w3.org/2000/svg" viewBox="0 0 197 197"><defs><style>.cls-1{fill:#1e1e1e;}.cls-2{fill:#505050;}.cls-3{fill:#f7931e;}.cls-4{fill:#dc781e;}</style></defs><title>Ресурс 3</title><g id="Слой_2" data-name="Слой 2"><g id="Слой_1-2" data-name="Слой 1"><path class="cls-1" d="M98.5,197H46.75A46.75,46.75,0,0,1,0,150.25V46.75A46.75,46.75,0,0,1,46.75,0H98.5"/><path class="cls-2" d="M98.5,0h51.75A46.75,46.75,0,0,1,197,46.75v103.5A46.75,46.75,0,0,1,150.25,197H98.5"/><path class="cls-3" d="M161.7,125.67h2s.22,0-7.19-41.16c-8.24-45.75-26.27-54.86-44.06-56.68a12.82,12.82,0,0,0,.11-1.65v-4A13.18,13.18,0,0,0,99.37,9h-.8A13.19,13.19,0,0,0,85.38,22.18v4a12.08,12.08,0,0,0,.13,1.71c-17.7,2-35,11.36-43.28,56.62-7.56,41.22-8,41.16-8,41.16h2a13.18,13.18,0,0,0-13.18,13.18h0A13.19,13.19,0,0,0,36.24,152H161.7a13.19,13.19,0,0,0,13.18-13.19h0A13.18,13.18,0,0,0,161.7,125.67Z"/><path class="cls-4" d="M99,125.67H45.46s-.18,0,6-34.67C60,42.86,81.34,42.86,99,42.86Z"/><path class="cls-3" d="M121.34,161.63a22.38,22.38,0,0,1-44.75,0Z"/><path class="cls-4" d="M99,179.21c-8.82,0-16-6.44-16-14.39H99Z"/></g></g></svg>