<svg xmlns="http://www.w3.org/2000/svg" viewBox="0 0 258 86"><defs><style>.cls-1{fill:#1e1e1e;}.cls-2{fill:#f7931e;}.cls-3{fill:#dc781e;}</style></defs><title>Ресурс 4</title><g id="Слой_2" data-name="Слой 2"><g id="Слой_1-2" data-name="Слой 1"><rect class="cls-1" width="258" height="86" rx="21.22" ry="21.22"/><path class="cls-1" d="M64.71,1.68H21.29A19.61,19.61,0,0,0,1.68,21.29V64.71A19.61,19.61,0,0,0,21.29,84.32H64.71A19.61,19.61,0,0,0,84.32,64.71V21.29A19.61,19.61,0,0,0,64.71,1.68Z"/><path class="cls-2" d="M64.71,86H21.29A21.31,21.31,0,0,1,0,64.71V21.29A21.31,21.31,0,0,1,21.29,0H64.71A21.31,21.31,0,0,1,86,21.29V64.71A21.31,21.31,0,0,1,64.71,86ZM21.29,3.36A18,18,0,0,0,3.36,21.29V64.71A18,18,0,0,0,21.29,82.64H64.71A18,18,0,0,0,82.64,64.71V21.29A18,18,0,0,0,64.71,3.36Z"/><path class="cls-2" d="M69.51,54.4h.84s.09,0-3-17.27c-3.45-19.19-11-23-18.48-23.78a5.09,5.09,0,0,0,0-.69V11a5.54,5.54,0,0,0-5.54-5.53H43A5.53,5.53,0,0,0,37.5,11v1.68a5.68,5.68,0,0,0,0,.72c-7.42.82-14.67,4.77-18.15,23.75C16.22,54.42,16,54.4,16,54.4h.84a5.53,5.53,0,0,0-5.53,5.53h0a5.54,5.54,0,0,0,5.53,5.53H69.51A5.53,5.53,0,0,0,75,59.93h0A5.52,5.52,0,0,0,69.51,54.4Z"/><path class="cls-3" d="M43.21,54.4H20.75s-.08,0,2.5-14.55c3.58-20.19,12.55-20.19,20-20.19Z"/><path class="cls-2" d="M52.58,69.48a9.39,9.39,0,1,1-18.77,0Z"/><path class="cls-3" d="M43.21,76.86c-3.71,0-6.71-2.7-6.71-6h6.71Z"/><path class="cls-2" d="M93.41,28.35h8.34c5.42,0,9.31,1.94,9.31,7.49,0,5.31-3.89,7.87-9.31,7.87h-5V55H93.41ZM101.26,41c4.14,0,6.42-1.67,6.42-5.12s-2.28-4.75-6.42-4.75H96.8V41Zm-.18,1.82L103.73,41,111.85,55H108Z"/><path class="cls-2" d="M114.31,45.13c0-6.41,4.33-10.37,8.86-10.37,5,0,7.87,3.61,7.87,9.25a10.21,10.21,0,0,1-.16,1.9H117.61c.24,4.17,2.79,6.88,6.55,6.88a8.57,8.57,0,0,0,4.9-1.58l1.2,2.19a11.6,11.6,0,0,1-6.51,2.05C118.5,55.45,114.31,51.6,114.31,45.13Zm13.78-1.61c0-4-1.77-6.1-4.86-6.1-2.77,0-5.24,2.23-5.65,6.1Z"/><path class="cls-2" d="M135.87,35.25h2.76l.28,2.86H139c1.73-1.87,3.79-3.35,6.13-3.35a5.22,5.22,0,0,1,5.45,3.76c2-2.22,4.1-3.76,6.5-3.76,4.05,0,6,2.68,6,7.71V55h-3.33V42.9c0-3.67-1.16-5.24-3.67-5.24-1.53,0-3.12,1-4.94,3V55h-3.33V42.9c0-3.67-1.17-5.24-3.67-5.24-1.48,0-3.12,1-4.94,3V55h-3.34Z"/><path class="cls-2" d="M168.87,29a2.31,2.31,0,0,1,4.6,0,2.3,2.3,0,0,1-4.6,0Zm.61,6.21h3.33V55h-3.33Z"/><path class="cls-2" d="M179.46,35.25h2.76l.28,2.84h.11c1.88-1.85,3.91-3.33,6.61-3.33,4.15,0,6,2.68,6,7.71V55H191.9V42.9c0-3.67-1.11-5.24-3.72-5.24-2,0-3.41,1-5.38,3V55h-3.34Z"/><path class="cls-2" d="M200.22,45.13c0-6.39,4-10.37,8.53-10.37a8.09,8.09,0,0,1,5.52,2.29l-.14-3.38v-7.6h3.33V55h-2.75l-.28-2.33h-.11a8.73,8.73,0,0,1-6,2.82C203.41,55.45,200.22,51.7,200.22,45.13ZM214.13,50V39.62a6.94,6.94,0,0,0-4.81-2c-3.15,0-5.66,3-5.66,7.53,0,4.73,2,7.54,5.41,7.54C210.9,52.64,212.48,51.75,214.13,50Z"/><path class="cls-2" d="M222.65,45.13c0-6.41,4.32-10.37,8.86-10.37,5,0,7.86,3.61,7.86,9.25a11.25,11.25,0,0,1-.15,1.9H226c.24,4.17,2.79,6.88,6.54,6.88a8.58,8.58,0,0,0,4.91-1.58l1.19,2.19a11.54,11.54,0,0,1-6.5,2.05C226.83,55.45,222.65,51.6,222.65,45.13Zm13.78-1.61c0-4-1.78-6.1-4.86-6.1-2.77,0-5.25,2.23-5.65,6.1Z"/><path class="cls-2" d="M244.21,35.25H247l.29,3.59h.11c1.37-2.5,3.38-4.08,5.6-4.08a4.48,4.48,0,0,1,2.1.41l-.62,2.92a5.59,5.59,0,0,0-1.91-.32c-1.66,0-3.65,1.2-5,4.53V55h-3.33Z"/></g></g></svg>